<svg xmlns="http://www.w3.org/2000/svg" xmlns:xlink="http://www.w3.org/1999/xlink" viewBox="0 0 797.49 600"><defs><style>.cls-1,.cls-41{fill:none;}.cls-2{isolation:isolate;}.cls-3{fill:url(#Gradiente_sem_nome_6);}.cls-4{fill:url(#Degradado_sin_nombre_79);}.cls-5{fill:url(#Gradiente_sem_nome_6-2);}.cls-6{fill:#5762ad;}.cls-7{fill:#ccc;}.cls-8{fill:#ef58a0;}.cls-9{fill:#e6e6e5;}.cls-16,.cls-36,.cls-9{mix-blend-mode:multiply;}.cls-10{fill:#e0e2e4;}.cls-11{fill:url(#Gradiente_sem_nome_20);}.cls-12{fill:url(#Gradiente_sem_nome_20-2);}.cls-13{fill:#e75e6e;}.cls-14{fill:url(#Gradiente_sem_nome_23);}.cls-15{fill:url(#Gradiente_sem_nome_23-2);}.cls-16,.cls-57{fill:#383838;}.cls-16{opacity:0.4;}.cls-17{fill:#84489c;}.cls-18,.cls-21,.cls-45,.cls-46,.cls-49{mix-blend-mode:overlay;}.cls-18{fill:url(#Gradiente_sem_nome_6-3);}.cls-19{fill:url(#Degradado_sin_nombre_79-2);}.cls-20{fill:url(#Degradado_sin_nombre_79-3);}.cls-21{fill:url(#Gradiente_sem_nome_6-4);}.cls-22{fill:#dfc3a1;}.cls-23{fill:#732431;}.cls-24{fill:url(#Gradiente_sem_nome_23-3);}.cls-25{fill:url(#Gradiente_sem_nome_23-4);}.cls-26{fill:url(#Degradado_sin_nombre_79-4);}.cls-27{fill:url(#Degradado_sin_nombre_79-5);}.cls-28{fill:#9aa0b4;}.cls-29{fill:#abafbf;}.cls-30{fill:#d7d9de;}.cls-31{fill:url(#Degradado_sin_nombre_79-6);}.cls-32{fill:#e5e6e9;}.cls-33{fill:#ced2d8;}.cls-34{fill:#fff;}.cls-35{fill:#483192;}.cls-36{opacity:0.1;}.cls-37{fill:#010101;}.cls-38{fill:url(#Gradiente_sem_nome_13);}.cls-39{fill:url(#Gradiente_sem_nome_13-2);}.cls-40{fill:url(#Gradiente_sem_nome_23-5);}.cls-41{stroke:#fff;stroke-miterlimit:10;}.cls-42{fill:url(#Gradiente_sem_nome_10);}.cls-43{fill:url(#Gradiente_sem_nome_4);}.cls-44{fill:url(#Gradiente_sem_nome_6-5);}.cls-45{fill:url(#Gradiente_sem_nome_6-6);}.cls-46{fill:url(#Gradiente_sem_nome_6-7);}.cls-47{fill:url(#Gradiente_sem_nome_20-3);}.cls-48{fill:#51489d;}.cls-49{fill:url(#Gradiente_sem_nome_6-8);}.cls-50{fill:url(#Degradado_sin_nombre_80);}.cls-51{fill:url(#Degradado_sin_nombre_80-2);}.cls-52{fill:url(#Gradiente_sem_nome_23-6);}.cls-53{fill:url(#Gradiente_sem_nome_23-7);}.cls-54{fill:url(#Gradiente_sem_nome_23-8);}.cls-55{fill:#fcd900;}.cls-56{fill:#6350a1;}.cls-58{fill:#252449;}.cls-59{fill:#e1d8c7;}.cls-60{opacity:0.1;}.cls-61{clip-path:url(#clip-path);}.cls-62{fill:#232020;}.cls-63{clip-path:url(#clip-path-2);}.cls-64{fill:#5b67af;}</style><linearGradient id="Gradiente_sem_nome_6" x1="633.37" y1="535.44" x2="734.37" y2="535.44" gradientUnits="userSpaceOnUse"><stop offset="0" stop-color="#ced2d8"/><stop offset="1" stop-color="#9aa0b4"/></linearGradient><linearGradient id="Degradado_sin_nombre_79" x1="631.2" y1="535.59" x2="736.97" y2="535.59" gradientUnits="userSpaceOnUse"><stop offset="0" stop-color="#65bdea"/><stop offset="0.21" stop-color="#6ac0df"/><stop offset="1" stop-color="#7ccbb8"/></linearGradient><linearGradient id="Gradiente_sem_nome_6-2" x1="632.43" y1="566.34" x2="744.32" y2="566.34" xlink:href="#Gradiente_sem_nome_6"/><linearGradient id="Gradiente_sem_nome_20" x1="739.77" y1="537.05" x2="775.25" y2="537.05" gradientUnits="userSpaceOnUse"><stop offset="0" stop-color="#51489d"/><stop offset="1" stop-color="#483192"/></linearGradient><linearGradient id="Gradiente_sem_nome_20-2" x1="766.43" y1="549.57" x2="798.53" y2="549.57" xlink:href="#Gradiente_sem_nome_20"/><linearGradient id="Gradiente_sem_nome_23" x1="206.43" y1="587.83" x2="132.79" y2="520.98" gradientUnits="userSpaceOnUse"><stop offset="0" stop-color="#5762ad"/><stop offset="1" stop-color="#51489d"/></linearGradient><linearGradient id="Gradiente_sem_nome_23-2" x1="156.33" y1="494.61" x2="31.94" y2="676.84" xlink:href="#Gradiente_sem_nome_23"/><linearGradient id="Gradiente_sem_nome_6-3" x1="146.59" y1="544.72" x2="146.59" y2="569.47" xlink:href="#Gradiente_sem_nome_6"/><linearGradient id="Degradado_sin_nombre_79-2" x1="113.77" y1="559.79" x2="119.96" y2="559.79" xlink:href="#Degradado_sin_nombre_79"/><linearGradient id="Degradado_sin_nombre_79-3" x1="104.41" y1="559.79" x2="110.59" y2="559.79" xlink:href="#Degradado_sin_nombre_79"/><linearGradient id="Gradiente_sem_nome_6-4" x1="146.77" y1="489.23" x2="49.33" y2="631.98" xlink:href="#Gradiente_sem_nome_6"/><linearGradient id="Gradiente_sem_nome_23-3" x1="6.31" y1="522.17" x2="57.83" y2="565.22" xlink:href="#Gradiente_sem_nome_23"/><linearGradient id="Gradiente_sem_nome_23-4" x1="29.44" y1="555.34" x2="79.53" y2="555.34" xlink:href="#Gradiente_sem_nome_23"/><linearGradient id="Degradado_sin_nombre_79-4" x1="34.2" y1="478.73" x2="48.01" y2="478.73" xlink:href="#Degradado_sin_nombre_79"/><linearGradient id="Degradado_sin_nombre_79-5" x1="39.14" y1="492.71" x2="79.53" y2="492.71" xlink:href="#Degradado_sin_nombre_79"/><linearGradient id="Degradado_sin_nombre_79-6" x1="56.11" y1="476.19" x2="77.3" y2="476.19" xlink:href="#Degradado_sin_nombre_79"/><linearGradient id="Gradiente_sem_nome_13" x1="345.45" y1="508.92" x2="370.13" y2="533.61" gradientUnits="userSpaceOnUse"><stop offset="0" stop-color="#ef58a0"/><stop offset="1" stop-color="#84489c"/></linearGradient><linearGradient id="Gradiente_sem_nome_13-2" x1="345.45" y1="533.78" x2="370.13" y2="558.46" xlink:href="#Gradiente_sem_nome_13"/><linearGradient id="Gradiente_sem_nome_23-5" x1="335.37" y1="462.8" x2="381.22" y2="508.65" xlink:href="#Gradiente_sem_nome_23"/><linearGradient id="Gradiente_sem_nome_10" x1="472.81" y1="568.63" x2="596.54" y2="568.63" gradientUnits="userSpaceOnUse"><stop offset="0" stop-color="#84489c"/><stop offset="1" stop-color="#483192"/></linearGradient><linearGradient id="Gradiente_sem_nome_4" x1="621.5" y1="612.52" x2="549.57" y2="547.22" gradientUnits="userSpaceOnUse"><stop offset="0" stop-color="#383838"/><stop offset="1" stop-color="#9aa0b4"/></linearGradient><linearGradient id="Gradiente_sem_nome_6-5" x1="492.18" y1="542.97" x2="546.85" y2="607.8" xlink:href="#Gradiente_sem_nome_6"/><linearGradient id="Gradiente_sem_nome_6-6" x1="484.43" y1="575.46" x2="484.43" y2="559.54" xlink:href="#Gradiente_sem_nome_6"/><linearGradient id="Gradiente_sem_nome_6-7" x1="555.79" y1="524.3" x2="497.07" y2="610.33" xlink:href="#Gradiente_sem_nome_6"/><linearGradient id="Gradiente_sem_nome_20-3" x1="463.66" y1="526.94" x2="581.74" y2="555.82" xlink:href="#Gradiente_sem_nome_20"/><linearGradient id="Gradiente_sem_nome_6-8" x1="521.16" y1="529.66" x2="521.16" y2="528.29" xlink:href="#Gradiente_sem_nome_6"/><linearGradient id="Degradado_sin_nombre_80" x1="393.45" y1="490.6" x2="393.45" y2="523.54" gradientUnits="userSpaceOnUse"><stop offset="0" stop-color="#6fb8e6"/><stop offset="0.49" stop-color="#748fc9"/><stop offset="1" stop-color="#7968ae"/></linearGradient><linearGradient id="Degradado_sin_nombre_80-2" x1="415.87" y1="507.07" x2="444.4" y2="507.07" xlink:href="#Degradado_sin_nombre_80"/><linearGradient id="Gradiente_sem_nome_23-6" x1="346" y1="570.88" x2="440.93" y2="570.88" xlink:href="#Gradiente_sem_nome_23"/><linearGradient id="Gradiente_sem_nome_23-7" x1="346" y1="570.98" x2="440.93" y2="570.98" xlink:href="#Gradiente_sem_nome_23"/><linearGradient id="Gradiente_sem_nome_23-8" x1="475.04" y1="570.98" x2="362.19" y2="570.98" xlink:href="#Gradiente_sem_nome_23"/><clipPath id="clip-path"><rect class="cls-1" x="593.49" y="508.88" width="45" height="52.22"/></clipPath><clipPath id="clip-path-2"><rect class="cls-1" x="632.74" y="497.77" width="3.47" height="64.02"/></clipPath></defs><title>playstore</title><g class="cls-2"><g id="Layer_1" data-name="Layer 1"><path class="cls-3" d="M734.37,549.48h-87a14,14,0,0,1,0-28.07h87Z"/><path class="cls-4" d="M737,549.91a2.23,2.23,0,0,0-2.17-2.17h-87.4a12,12,0,0,1,0-24h87.4a2.17,2.17,0,1,0,0-4.34h-87.4a16.21,16.21,0,0,0,0,32.41h87.4A2,2,0,0,0,737,549.91Z"/><path class="cls-5" d="M738.82,580.33H632.43v-28H738.82a5.49,5.49,0,0,1,5.49,5.49v17A5.49,5.49,0,0,1,738.82,580.33Z"/><path class="cls-6" d="M736.38,582.33H630.49a2,2,0,0,1,0-4H736.38a6,6,0,0,0,6-6v-12a6,6,0,0,0-6-6H630.49a2,2,0,0,1,0-4H736.38a10,10,0,0,1,10,10v12A10,10,0,0,1,736.38,582.33Z"/><path class="cls-7" d="M632.43,558.35H736.32a2,2,0,0,1,2,2h0a2,2,0,0,1-2,2H632.43Z"/><path class="cls-7" d="M632.43,565.37H736.32a2,2,0,0,1,2,2h0a2,2,0,0,1-2,2H632.43Z"/><path class="cls-7" d="M632.62,571.57H736.51a2,2,0,0,1,2,2h0a2,2,0,0,1-2,2H632.62Z"/><path class="cls-7" d="M734.69,545.22H641.76a1.9,1.9,0,0,1-1.79-2h0a1.9,1.9,0,0,1,1.79-2h92.93Z"/><path class="cls-7" d="M734.69,538.2H641.76a1.9,1.9,0,0,1-1.79-2h0a1.9,1.9,0,0,1,1.79-2h92.93Z"/><path class="cls-7" d="M734.52,532H641.59a1.9,1.9,0,0,1-1.79-2h0a1.9,1.9,0,0,1,1.79-2h92.93Z"/><path class="cls-8" d="M633.95,521.18V490.62H738.36a2.55,2.55,0,0,1,2.55,2.55v25.47a2.55,2.55,0,0,1-2.55,2.55Z"/><path class="cls-9" d="M639,495.71v17.83a2.55,2.55,0,0,0,2.55,2.55h91.68a5.09,5.09,0,0,1,5.09,5.09H633.95V490.62h0A5.09,5.09,0,0,1,639,495.71Z"/><rect class="cls-9" x="723.08" y="490.62" width="2.55" height="30.56"/><rect class="cls-9" x="717.99" y="490.62" width="2.55" height="30.56"/><rect class="cls-9" x="651.78" y="490.62" width="2.55" height="30.56"/><rect class="cls-9" x="646.68" y="490.62" width="2.55" height="30.56"/><path class="cls-10" d="M667.06,508.13v-4.46a.32.32,0,0,1,.32-.32h40.11a.32.32,0,0,1,.32.32v4.46a.32.32,0,0,1-.32.32H667.37A.32.32,0,0,1,667.06,508.13Z"/><path class="cls-11" d="M739.77,490.53l24.6-2.85,10.86,93.6a2.34,2.34,0,0,1-1.76,2.77L753,586.42a2.34,2.34,0,0,1-2.34-2.29Z"/><path class="cls-9" d="M760.86,493.21l-14.35,1.67a2.34,2.34,0,0,0-1.76,2.77l9.39,81c.32,2.79-1.25,5.27-3.51,5.54h0l-2.35-20.24-4.11-35.42-4.4-37.95,24.6-2.85h0C764.69,490.47,763.12,492.95,760.86,493.21Z"/><rect class="cls-9" x="749.52" y="572.57" width="24.77" height="2.55" transform="translate(-61.06 91.64) rotate(-6.62)"/><rect class="cls-9" x="748.93" y="567.51" width="24.77" height="2.55" transform="translate(-60.48 91.54) rotate(-6.62)"/><rect class="cls-9" x="741.6" y="504.27" width="24.77" height="2.55" transform="translate(-53.24 90.27) rotate(-6.62)"/><rect class="cls-9" x="741.01" y="499.21" width="24.77" height="2.55" transform="translate(-52.66 90.17) rotate(-6.62)"/><path class="cls-9" d="M754.39,524.73l3.59-.42a.29.29,0,0,1,.29.29l3.16,27.2a.29.29,0,0,1-.22.35l-3.59.42a.29.29,0,0,1-.29-.29l-3.16-27.2A.29.29,0,0,1,754.39,524.73Z"/><path class="cls-12" d="M798.53,580.51l-24.41,3-7.68-63a2,2,0,0,1,1.79-2.28l20.34-2.48a2,2,0,0,1,2.28,1.79Z"/><path class="cls-9" d="M777.69,578.92l14.24-1.73a2,2,0,0,0,1.79-2.28L787.27,522a4.1,4.1,0,0,1,3.57-4.56h0l2,16.27,2,16.27,3.72,30.51-24.41,3h0A4.1,4.1,0,0,1,777.69,578.92Z"/><rect class="cls-9" x="767.22" y="525.04" width="24.59" height="2.05" transform="translate(-57.89 98.11) rotate(-6.94)"/><rect class="cls-9" x="767.71" y="529.11" width="24.59" height="2.05" transform="translate(-58.38 98.2) rotate(-6.94)"/><rect class="cls-9" x="772.42" y="567.75" width="24.59" height="2.05" transform="translate(-63.01 99.05) rotate(-6.94)"/><rect class="cls-9" x="772.91" y="571.82" width="24.59" height="2.05" transform="translate(-63.5 99.14) rotate(-6.94)"/><path class="cls-10" d="M785.38,559.41l-3.56.43a.26.26,0,0,1-.29-.22l-1.67-13.73a.26.26,0,0,1,.22-.29l3.56-.43a.26.26,0,0,1,.29.22l1.67,13.73A.26.26,0,0,1,785.38,559.41Z"/><path class="cls-10" d="M783.4,543.14l-3.56.43a.26.26,0,0,1-.29-.22l-.68-5.59a.26.26,0,0,1,.22-.29l3.56-.43a.26.26,0,0,1,.29.22l.68,5.59A.26.26,0,0,1,783.4,543.14Z"/><polygon class="cls-13" points="727.71 528.93 727.71 550.34 721.2 543.11 715.12 549.62 715.12 528.93 727.71 528.93"/><rect class="cls-14" x="139.34" y="543.55" width="72.4" height="32.48"/><path class="cls-15" d="M211.69,543.55a2.67,2.67,0,0,0,2.67-2.67h0a2.67,2.67,0,0,0-2.67-2.67H12.3a3.25,3.25,0,0,0-3.25,3.25v36.64a3.25,3.25,0,0,0,3.25,3.25H211.69a2.67,2.67,0,1,0,0-5.33H139.34V543.55Z"/><polygon class="cls-16" points="211.74 543.54 139.34 543.54 139.34 576.03 142.08 576.03 142.08 546.27 145.3 546.27 145.3 569.77 149.61 565.97 149.61 546.27 211.74 546.27 211.74 543.54"/><polygon class="cls-17" points="148.74 564.9 144.43 568.71 144.43 543.54 148.74 543.54 148.74 564.9"/><polygon class="cls-18" points="147.89 544.47 147.89 564.25 144.43 567.3 144.43 568.72 148.74 564.91 148.74 544.47 147.89 544.47"/><rect class="cls-16" x="144.43" y="543.54" width="4.31" height="0.93"/><rect class="cls-19" x="113.77" y="538.22" width="6.18" height="43.14"/><rect class="cls-20" x="104.41" y="538.22" width="6.18" height="43.14"/><path class="cls-21" d="M9.13,540.78h205.2a2.65,2.65,0,0,0-2.65-2.56H12.3A3.25,3.25,0,0,0,9.13,540.78Z"/><path class="cls-16" d="M214.33,578.8H9.13a3.2,3.2,0,0,0,3.17,2.56H211.69A2.67,2.67,0,0,0,214.33,578.8Z"/><path class="cls-22" d="M36.76,492.1s2.65,8.54.83,14.36a42.42,42.42,0,0,1-4.06,9.33l1.36.63s8.67-5.22,10.66-11.18,0-14.41,0-14.41Z"/><path class="cls-23" d="M37.34,433.28c-5.85,3.08-1.89,7.65-6.58,14.51a6.72,6.72,0,0,0,.8,8.87c4.31,4.51-.27,5.24,1.19,9.53,1.53,4.5,12.75,3.91,15-1.45C50.36,458.63,44.42,429.55,37.34,433.28Z"/><path class="cls-24" d="M44.12,516.74C25.81,523.29,18,535.5,19,548.75s5.34,29.76,4.45,33.89c0,0-6.38,9.88-4.38,11.63S29.38,582,30.3,578.8c2-6.89-3-29.55,2-34.79s26.94-21,47.22-22.1A38,38,0,0,0,44.12,516.74Z"/><path class="cls-16" d="M30.4,564.51c-.52-8.36-1-17.43,1.91-20.5,5-5.24,26.94-21,47.22-22.1a38,38,0,0,0-35.41-5.16,47.72,47.72,0,0,0-17.64,10.86c-8.61,9.07,3.11,21.41,3.92,36.9Z"/><path class="cls-25" d="M79.53,521.9c0,17.6-9.2,16.32-24.71,16.32s-8,29.92,0,37.81c0,0,4.74,5.49-1.76,17s-2.25-11.66-2.25-11.66-21.24-21.05-21.37-40.58,25.38-25.2,25.38-25.2S79.53,510.5,79.53,521.9Z"/><path class="cls-26" d="M44.64,465.34c-12,3.86-11.11,19-9.55,26.41a9.8,9.8,0,0,0,11-4C49.63,482.87,47.79,464.33,44.64,465.34Z"/><path class="cls-27" d="M44.64,465.34c-5.73,3.31-8.55,15.76-.52,30.73a21.52,21.52,0,0,1,0,20.66s14.68-4.85,35.41,5.16c0-8-.69-20.14-3.72-31.53-2.27-8.51-5.84-16.62-11.41-22.31-3.32-3.4-7.73-5.37-12.81-4.2Z"/><path class="cls-22" d="M42.35,453.7a22.09,22.09,0,0,1,2.29,11.81,3.18,3.18,0,0,0,.52,3.7c.72.09,1.64-2.06,4.33-2.59,5.35-1.05.64-15.29.64-15.29Z"/><path class="cls-22" d="M33.5,443.19c-.54,4.45,2,12.93,4.82,15.31,5.46,4.54,11.34-2.84,12.49-8.23,0,0,2.82,1.75,3.88-4.14.6-3.31-.79-4.23-2-4a2.91,2.91,0,0,0-1.58,1.14s-2-7.84-8.45-5.55S34.81,432.33,33.5,443.19Z"/><path class="cls-23" d="M39.27,433.54c-.32,0-9,1.3-7.54,11.24,0,0,5.63,3,15.78,0C47.51,444.78,47.81,433.72,39.27,433.54Z"/><polygon class="cls-28" points="39.43 513.93 72.41 513.76 50.02 523.34 17.03 523.5 39.43 513.93"/><polygon class="cls-29" points="50.02 523.34 16.96 523.34 0.89 500.8 2.6 499.74 34.68 499.74 50.02 523.34"/><polygon class="cls-30" points="48.56 523.34 16.98 523.34 0.89 500.8 33.91 500.8 48.56 523.34"/><rect class="cls-29" x="17.03" y="523.33" width="32.98" height="3.13"/><polygon class="cls-29" points="50.02 526.46 72.41 516.14 72.41 513.76 50.02 523.34 50.02 526.46"/><path class="cls-22" d="M60.43,466c-5.38,1.14-4.22,9.28,3.95,16.75s10.45,14,4.08,21.18c-3.34,3.77-18.78,9.61-19.36,13.46,0,0-.83,2.93,5.39,0s4.36-5,6.73-5.35c4.06-.53,16.63-7,18.32-12.33C82.86,489.29,70.28,463.94,60.43,466Z"/><path class="cls-31" d="M59.83,464.94c-8.14,2.85-1.65,14.95,7.34,22.76,0,0,5.53,1.18,10.14-6.12C77.3,481.59,68.77,461.81,59.83,464.94Z"/><path class="cls-23" d="M46.55,440.87c2,1.3,1.68,3.43,1.68,7.09s1.6,3.66,2.29,7.32-6.25,7.85-1.6,12.58,16.7.4,15.4-6.86c-.86-4.79-5.56-4.7-3.64-9.94,2.38-6.51-1.82-6.22-4.22-9-1.32-1.51-3.34-7.57-7-9.46-4.16-2.18-10.45-2.05-15.19,3.23Z"/><rect class="cls-32" x="206.14" y="480.7" width="160.99" height="104.11"/><rect class="cls-33" x="206.14" y="480.7" width="160.99" height="6.41"/><rect class="cls-34" x="224.84" y="491.21" width="123.59" height="72.54"/><rect class="cls-35" x="277.11" y="520.35" width="19.06" height="11.14"/><polygon class="cls-34" points="290.53 525.92 282.74 522.29 282.74 529.56 290.53 525.92"/><rect class="cls-33" x="224.84" y="570.62" width="48.14" height="3.81"/><rect class="cls-33" x="224.84" y="576.35" width="72.23" height="2.23"/><circle class="cls-33" cx="332.4" cy="572.53" r="2.17"/><circle class="cls-33" cx="338.58" cy="572.53" r="2.17"/><circle class="cls-33" cx="344.76" cy="572.53" r="2.17"/><circle class="cls-35" cx="210.68" cy="483.9" r="1.95"/><circle class="cls-17" cx="215.81" cy="483.9" r="1.95"/><circle class="cls-8" cx="220.94" cy="483.9" r="1.95"/><g class="cls-36"><circle class="cls-37" cx="357.2" cy="521.67" r="11.32"/></g><circle class="cls-38" cx="357.2" cy="520.67" r="11.32"/><polygon class="cls-34" points="365.01 519.32 357.19 517.31 349.38 519.32 357.19 521.33 365.01 519.32"/><path class="cls-34" d="M353.41,521.16V524a9.85,9.85,0,0,0,7.57,0v-2.84l-3.79,1Z"/><path class="cls-34" d="M363.56,522a.25.25,0,0,0-.16-.23v-1.69l-.18,0v1.64a.25.25,0,0,0,0,.45l-.13,1a.55.55,0,0,0,.5,0l-.13-1A.25.25,0,0,0,363.56,522Z"/><g class="cls-36"><circle class="cls-37" cx="357.2" cy="546.53" r="11.32"/></g><circle class="cls-39" cx="357.2" cy="545.53" r="11.32"/><path class="cls-34" d="M361,542.39c-.23-.55,0-1.4-.43-1.81s-1.26-.2-1.81-.43-1-1-1.58-1-1.06.76-1.58,1-1.4,0-1.81.43-.2,1.26-.43,1.81-1,1-1,1.58.76,1.06,1,1.58,0,1.4.43,1.81,1.26.2,1.81.43,1,1,1.58,1,1.06-.76,1.58-1,1.4,0,1.81-.43.2-1.26.43-1.81,1-1,1-1.58S361.23,542.91,361,542.39Zm-3.82,4.36A2.78,2.78,0,1,1,360,544,2.78,2.78,0,0,1,357.2,546.75Z"/><path class="cls-34" d="M357.2,549.57c-.57,0-1-.57-1.49-.92v3.84l1.49-1.15,1.49,1.15v-3.84C358.21,549,357.76,549.57,357.2,549.57Z"/><g class="cls-36"><circle class="cls-37" cx="357.2" cy="485.62" r="21.03"/></g><circle class="cls-40" cx="357.2" cy="484.62" r="21.03"/><ellipse class="cls-41" cx="357.2" cy="478.56" rx="7.23" ry="8.23"/><path class="cls-41" d="M371.18,494.69c0-3.32-2.91-4.83-7.21-6.34-1.79,1.86-4.16,1.63-6.77,1.63s-5,.24-6.77-1.63c-4.3,1.51-7.21,3-7.21,6.34"/><path class="cls-42" d="M551.33,580.22V557h43.6a1.61,1.61,0,0,0,1.61-1.61h0a1.61,1.61,0,0,0-1.61-1.61H474.77a2,2,0,0,0-2,2v25.7a2,2,0,0,0,2,2H594.93a1.61,1.61,0,0,0,1.61-1.61h0a1.61,1.61,0,0,0-1.61-1.61Z"/><rect class="cls-43" x="551.33" y="557.03" width="43.63" height="23.19"/><rect class="cls-44" x="476.3" y="557.03" width="75.03" height="23.19"/><rect class="cls-16" x="476.3" y="557.03" width="118.66" height="2.09"/><polygon class="cls-16" points="489.11 577.03 484.97 573.3 480.84 577.03 480.84 557.03 489.11 557.03 489.11 577.03"/><polygon class="cls-8" points="488.66 576.35 484.43 572.46 480.2 576.35 480.2 557.03 488.66 557.03 488.66 576.35"/><polygon class="cls-45" points="487.46 558.32 487.46 573.94 484.43 571.08 480.2 575.34 480.2 576.35 484.43 572.46 488.66 576.35 488.66 558.32 487.46 558.32"/><rect class="cls-16" x="480.2" y="557.03" width="8.46" height="1.28"/><path class="cls-46" d="M472.84,555.37H596.51a1.6,1.6,0,0,0-1.59-1.55H474.75A2,2,0,0,0,472.84,555.37Z"/><path class="cls-16" d="M596.51,581.89H472.84a1.93,1.93,0,0,0,1.91,1.55H594.92A1.61,1.61,0,0,0,596.51,581.89Z"/><rect class="cls-47" x="459.68" y="528.19" width="122.96" height="25.63"/><rect class="cls-6" x="562.46" y="528.19" width="16" height="25.63"/><rect class="cls-6" x="474.17" y="537.96" width="83.02" height="6.1"/><circle class="cls-48" cx="570.48" cy="541" r="3.75"/><rect class="cls-49" x="459.68" y="528.19" width="122.96" height="1.55"/><rect class="cls-16" x="459.68" y="552.08" width="122.96" height="1.74"/><path class="cls-22" d="M379.73,523.54s3.44,15.68,2.69,18.87-7.56,6.71-7.56,6.71-3.87,0-6,2.19c-3.59,3.6,6.31,5.53,6.31,5.53s16.92-7.49,18.42-15.32-3.19-19.28-3.19-19.28Z"/><path class="cls-50" d="M407.71,490.6C392,492.72,376,505,379.73,523.54h12.71Z"/><path class="cls-22" d="M443.85,523.54s-3.44,15.68-2.69,18.87,7.56,6.71,7.56,6.71,3.87,0,6,2.19c3.59,3.6-6.31,5.53-6.31,5.53s-16.92-7.49-18.42-15.32,3.19-19.28,3.19-19.28Z"/><path class="cls-51" d="M415.87,490.6c15.75,2.12,31.71,14.45,28,32.94H431.15Z"/><path class="cls-52" d="M428.17,565.45c3,4.22,27.74-17.79,42.22-14.48,0,0,3.45,40.16-58.27,40.16S353.85,551,353.85,551c14.48-3.31,39.23,18.7,42.22,14.48Z"/><path class="cls-16" d="M409.23,579.94A38.17,38.17,0,0,1,398.74,575c-6.6-4.38-17.34-14.28-28.08-19l37.5,30.75c1.79-.47,13.49-.41,18.77-1.95,13.81-4,31.9-31.55,31.9-31.55C448.54,556.84,425.41,576.38,409.23,579.94Z"/><path class="cls-53" d="M390.06,570.93c4,3.71,27.16,22.28,39.53,15.75s27.46,4.41,21.73,4.41H428.5c-87.08,2.72-89.14-36.81-74.65-40.13C353.85,551,364.11,547.05,390.06,570.93Z"/><path class="cls-16" d="M408.29,583.48c-6.28,2.27-14.65,2.11-19.92,1.26,0,0,2.35,5,17.45,5,2.7,0,6.14-1.18,10-3.1A62.37,62.37,0,0,1,408.29,583.48Z"/><path class="cls-54" d="M434.18,570.93c-4,3.71-27.16,22.28-39.53,15.75s-27.46,4.41-21.73,4.41h22.81c87.08,2.72,89.14-36.81,74.65-40.13C470.39,551,460.13,547.05,434.18,570.93Z"/><path class="cls-55" d="M412.12,569.87c13.24,0,16.05-4.42,16.05-4.42s-1.23-10.72,5.41-36.58-7.24-38.69-21.46-38.69S384,503,390.66,528.87s5.41,36.58,5.41,36.58S398.88,569.87,412.12,569.87Z"/><path class="cls-56" d="M428.5,472.37l-16.38-9.55-16.05,9.73c5.89,2.15-1.16,6.91,3.66,10.91,1.94,1.61,3.63.8,5.6.8s3,2.16,6.79,2.16c3.13,0,4.59-2.74,6.79-2.15,1.87.5,3.65.8,5.6-.81C429.33,479.46,422.32,475.48,428.5,472.37Z"/><path class="cls-22" d="M417,483.84a27.87,27.87,0,0,0-.55,10.91s-.51,2.21-4.68,2c-4.17,0-4.57-2.23-4.57-2.23a28.22,28.22,0,0,0,0-10.92Z"/><path class="cls-22" d="M405,475.76c.69,2.28.06,4.44-1.42,4.82s-3.24-1.17-3.93-3.45-.06-4.44,1.42-4.82S404.31,473.48,405,475.76Z"/><path class="cls-22" d="M419.23,475.76c-.69,2.28-.06,4.44,1.42,4.82s3.24-1.17,3.93-3.45.06-4.44-1.42-4.82S419.93,473.48,419.23,475.76Z"/><ellipse class="cls-22" cx="412.12" cy="473.09" rx="10.92" ry="13.33"/><path class="cls-56" d="M412.12,449.58c5.36,0,5.12,5.07,10.92,4,3.44-.62,6.89,3.94,5,7.76-3.53,7.06,3,4,2.74,8.47s-6.16,3.93-6.16,3.93c-.23-1-1.44-1.46-1.44-1.46l-.78,5.33s-1.73-.35-2-1.69.76-4,1-5.09c.31-1.75-1.77-.81-3.45-1.05-2.87-.41-4.9-2.92-7.9-1.81-6.21,2.3-6.89.88-7.13,2.86-.14,1.1,1.21,3.75,1,5.09s-2,1.69-2,1.69l-.78-5.33s-1.21.49-1.44,1.46c0,0-5.87.54-6.16-3.93s6.35-2.37,2.15-9.05c-2-3.1,0-8.54,5.57-6.31S406.76,449.58,412.12,449.58Z"/><ellipse class="cls-57" cx="412.12" cy="574.94" rx="6.79" ry="1.71"/><path class="cls-17" d="M412.12,577.75c5.91,0,6.41-1.28,6.41-1.28l38-22.07v-1.87l-38,22.07s-.5,1.28-6.41,1.28-6.41-1.28-6.41-1.28l-38-22.07v1.87l38,22.07S406.21,577.75,412.12,577.75Z"/><path class="cls-28" d="M368.62,553l5.26-3.11s38.3,5.61,38.24,19.16v4.36s-4.6.31-6.41,1.13Z"/><path class="cls-33" d="M373.88,549.94,368.62,553l37.09,21.54c1.81-.82,6.41-1.13,6.41-1.13C412,560.22,373.88,549.94,373.88,549.94Z"/><path class="cls-28" d="M455.62,553l-5.26-3.11s-38.3,5.61-38.24,19.16v4.36s4.6.31,6.41,1.13Z"/><path class="cls-33" d="M450.36,549.94l5.26,3.11-37.09,21.54c-1.81-.82-6.41-1.13-6.41-1.13C412.29,560.22,450.36,549.94,450.36,549.94Z"/><path class="cls-58" d="M664.59,564c-.54-4.75-2.86-8.52-7.14-10.59-3.48-1.67-7.39-2.07-11.2-2.57-8.49-1.12-16.59-2.23-25.16-1.89-6.85.28-11.08,6.27-14.28,12.19-2,3.73-1.46,5.48,1.08,8.6a31,31,0,0,0,8.37,7.18c6.3,3.67,16,2.76,22.91,2A52.53,52.53,0,0,0,658,573c3.76-2,7.15-4.39,6.62-9"/><path class="cls-58" d="M621.72,576.95a84.49,84.49,0,0,0-3,8.36,14.51,14.51,0,0,0-.8,4.62c.13,3.68,4.12,6.34,6.73,2.94a18.62,18.62,0,0,0,2.7-4.93c1-2.62-1.06-1.09-2.77-1.9-2-.93-1.92-1.64-1.08-3.53,1.07-2.43,2.34-4,2.19-6.81,0-.77-.25-1.67-.95-2a1.5,1.5,0,0,0-1.58.39,4.45,4.45,0,0,0-.9,1.48q-.29.67-.57,1.34"/><path class="cls-22" d="M635,490.44l6.94.69a45.91,45.91,0,0,0,.63-6.35c2-.36,4.38-1,5.08-3.25a7.57,7.57,0,0,0,.23-2.19l.08-9.19a9.27,9.27,0,0,0-.33-3.13,6.19,6.19,0,0,0-3.66-3.41,12.63,12.63,0,0,0-11.93.74,6.68,6.68,0,0,0-2.39,2.52c-.85,1.68-.74,3.76-.62,5.7l.35,5.38c.14,2.06.43,4.43,2,5.52.81.58,1.86.69,2.56,1.44,1.23,1.32.66,3.67,1.12,5.53"/><path class="cls-23" d="M644.49,466.86a3.06,3.06,0,0,1,.24.52c.34.94.14,2,.47,3,.52,1.5,2.26,2.38,2.54,3.95.23,1.28-.6,2.52-.65,3.83s.86,2.75.74,4.16a9.44,9.44,0,0,1-1.52,3.94c.21-.31,2.21-.24,2.72-.57a2.15,2.15,0,0,0,1.09-1.67,17.5,17.5,0,0,1,.37-2.54c.43-1.06,1.33-1.86,1.64-3,.41-1.54-.41-3.15-.38-4.75.05-2.42,2.05-4.74,1.27-7-.46-1.34-1.75-2.18-2.49-3.38a18.57,18.57,0,0,1-1.18-3,3.56,3.56,0,0,0-2.08-2.28,16.72,16.72,0,0,0-1.74-.18,21.14,21.14,0,0,1-2.8-1.17c-1.38-.45-3.77,1-4.55,2.22s-.36,2.19.47,3.22c1.38,1.72,4.66,2.79,5.81,4.75"/><path class="cls-23" d="M624.84,460.24a26,26,0,0,0-2.55,1.83c-1.44,1.43-1.67,3.69-1.69,5.74,0,1.83-.77,3.47-.54,5.37a4.7,4.7,0,0,0,1.73,3.3c1.28.92,3.27,1,3.86,2.52s-1,3.69.06,5.08c.56.77,1.64.86,2.44,1.37a7.07,7.07,0,0,1,1.91,2.51,3.18,3.18,0,0,0,2.42,1.82,9.15,9.15,0,0,0-.67-4.4c-.41-.86-1.6-2.44-.72-3.4.55-.79,1.88-1.07,1.89-2a2.27,2.27,0,0,0-.56-1.22,5.72,5.72,0,0,1-.49-5.08,7.2,7.2,0,0,1,3.45-3.79c1.8-.94,1.5-1.39,2-3.18s1.36-2.05,2.79-2.68a3.08,3.08,0,0,0,2.15-2.16,3.7,3.7,0,0,0,.22-3,6.06,6.06,0,0,0-1.86-1.9c-1.49-1.12-3.16-2.3-5-2.13-1,.09-2,.6-3,.68-.68.05-1.36-.09-2-.1a5.34,5.34,0,0,0-3.32,1.1c-.94.74-.9,1.49-1.41,2.51a3.62,3.62,0,0,1-1.06,1.23"/><path class="cls-23" d="M628.85,453.46c.16-1.14,0-2.62-1-3-.58-.2-1.23,0-1.83-.07-1.29-.24-1.75-1.83-2.45-3a1,1,0,0,0-.41-.42,1.54,1.54,0,0,0-.83,0c-1.27.18-2.27-1.09-3.48-1.54a3,3,0,0,0-3.78,2c-.17.65-.13,1.34-.29,2-.66,2.64-4.38,3.82-4.43,6.54,0,1.84,1.75,3.57,1.1,5.28-.42,1.09-1.77,1.86-1.59,3a1.59,1.59,0,0,0,1.64,1.22,3.14,3.14,0,0,0,2-1c.87-.81,1.51-1.83,2.34-2.68a4,4,0,0,1,3.1-1.42c1.13.12,2.16,1,3.27.79.89-.17,1.54-1,2.41-1.25a8,8,0,0,1,2.52.12c.85,0,1.88-.43,1.89-1.3a2.24,2.24,0,0,1,0-.63c.17-.56,1.1-.55,1.27-1.11-.45-.69-1.07-.43-1.4-1.34a5.14,5.14,0,0,1,0-2.33"/><path class="cls-34" d="M641.29,488.14c3.23-.44,6.5-1,9.21.17,2.29,1,2.25,4,2.76,6.23,1.69,7.42,3,14.93,4,22.48.48,3.61,1.3,7.48,1.28,11.12,0,2.93-.73,5.77-.51,8.75.17,2.29,1.12,4.76,3.16,5.7,1,.47,2.21.49,3.24,1s1.91,1.71,1.4,2.74a2.8,2.8,0,0,1-1.21,1l-7.65,4.38a40.5,40.5,0,0,1-6,3,31.56,31.56,0,0,1-9.31,1.63,74.81,74.81,0,0,1-24.23-2.73c-4.24-1.2-8.33-3.33-7.3-8.24a67.07,67.07,0,0,1,5.31-14.74c2.67-5.61,3.46-12.37,5.35-18.29s3.94-12,6-17.91l0-.07c.75-2.18,1.05-4.33,2.7-6.1,2.25-2.42,3.33-.49,5.89,0a18.73,18.73,0,0,0,5.95-.14"/><path class="cls-22" d="M649.22,580l2.2.12a3,3,0,0,0,2.28-.49,2.14,2.14,0,0,0,.06-2.73,4.78,4.78,0,0,0-2.46-1.53,25.5,25.5,0,0,0-7-1.06,1.65,1.65,0,0,0-.7.07,1.47,1.47,0,0,0-.73,1c-1.33,4.16,3.46,4.49,6.31,4.65"/><path class="cls-22" d="M620.95,587a1.86,1.86,0,0,0,.06,1,1.31,1.31,0,0,0,.49.52c1.52,1,3.55-.08,4.71-1.48s1.95-3.19,3.42-4.23c3.39-2.39.29-6.78-3.25-5.77-4.13,1.17-5,6.26-5.44,10"/><path class="cls-58" d="M666.58,564.48c2.92-2.2,5.86-4.7,6.92-8.42s-.44-9-4.21-11.1c-4.6-2.61-9.12.6-12.4,3.63-6.72,6.2-14,11.67-21.2,17.34-2.42,1.92-10.81,9-10.81,9-.23,1,4.28,10,5.48,9.66,13.06-3.54,25.76-12.19,36.22-20.08"/><path class="cls-58" d="M600.85,568.75c-2.86-1.43-5.74-3.15-6.88-6.59s.16-9.09,3.7-12.23c4.32-3.84,8.74-1.83,12,.33,6.61,4.42,13.78,8,20.8,11.73,2.37,1.27,10.61,6.11,10.61,6.11.25.93-3.8,11.14-5,11.13-12.6-.08-25-5.36-35.25-10.48"/><path class="cls-58" d="M644.29,581.77a80.81,80.81,0,0,0,8.08,3.5,13.68,13.68,0,0,0,4.51,1.06c3.62,0,6.44-4,3.23-6.82a18.15,18.15,0,0,0-4.72-3c-2.53-1.12-1.13,1-2,2.77-1,2-1.71,1.9-3.53.95-2.34-1.23-3.84-2.63-6.6-2.61a2.09,2.09,0,0,0-2,.88,1.61,1.61,0,0,0,.31,1.65,4.37,4.37,0,0,0,1.42,1l1.3.66"/><path class="cls-22" d="M682.08,532.26a2,2,0,0,1-.07-.54c.08-1.64,1.08-2.44,1.6-4,.23-.69-.9-2.16.54-2.53s4.38-.12,5.39-1.53c.45-.62,1-1.43,1.73-1.25a1.47,1.47,0,0,1,.64.43c6.11,6.06.17,13.36-6.49,13.14a2.63,2.63,0,0,1-1.41-.3,4,4,0,0,1-1.42-2,7.86,7.86,0,0,1-.5-1.42"/><path class="cls-34" d="M693.79,533.35A3.89,3.89,0,0,0,698.2,532a6.15,6.15,0,0,0,1.06-4.78,12.4,12.4,0,0,0-1.94-4.6,9.46,9.46,0,0,0-4.22-4,9.31,9.31,0,0,0-3.19-.51,2.77,2.77,0,0,0-2.07.55,2.8,2.8,0,0,0-.64,1.45c-.73,3.41-.16,3.91,2,6.18a27,27,0,0,1,4.57,7"/><path class="cls-59" d="M593.49,496v-5.24s27.38-2.61,43.85,8.64Z"/><path class="cls-34" d="M587.88,495.43l3.67-2.9a80.21,80.21,0,0,1,45.79,6.86v62.46s-15.87-11.7-49.46-7.11Z"/><path class="cls-59" d="M681.19,496v-5.24s-27.38-2.61-43.85,8.64Z"/><path class="cls-34" d="M686.8,495.43l-3.67-2.9a80.21,80.21,0,0,0-45.79,6.86v62.46s15.87-11.7,49.46-7.11Z"/><path class="cls-8" d="M637.34,499.36c2.55-.14,4.49-.77,4.6-1.52,0,0,0,0,0,0l0,0,.13,0c.73-.33,4.15-1,5.19-1.26l.22,0h0a76.46,76.46,0,0,1,8.81-1.71c11.24-1.81,19.49-1.48,24.14-.79a24.36,24.36,0,0,1,5,1.15,5.88,5.88,0,0,1,.83.36h0a3.48,3.48,0,0,1,1.38,1.29,4.44,4.44,0,0,1,.51,2.48v55.16c0,1.56-1.25,3.1-2.75,2.82a84.93,84.93,0,0,0-22.41-1.26,91.32,91.32,0,0,0-18,3,29.3,29.3,0,0,0-6.06,1.92,1.89,1.89,0,0,1-.91.23,1.9,1.9,0,0,1-.43-.05l-.43-.16a2,2,0,0,1-1.07-1.77V500.7c0-.47.4-.92,1.14-1.34"/><path class="cls-8" d="M637.35,499.36c-2.55-.14-4.49-.77-4.6-1.52,0,0,0,0,0,0l0,0-.13,0c-.73-.33-4.15-1-5.19-1.26l-.22,0h0a76.47,76.47,0,0,0-8.81-1.71c-11.24-1.81-19.49-1.48-24.14-.79a24.36,24.36,0,0,0-5,1.15,5.87,5.87,0,0,0-.83.36h0a3.48,3.48,0,0,0-1.38,1.29,4.44,4.44,0,0,0-.51,2.48v55.16c0,1.56,1.25,3.1,2.75,2.82a84.93,84.93,0,0,1,22.41-1.26,91.32,91.32,0,0,1,18,3,29.3,29.3,0,0,1,6.06,1.92,1.88,1.88,0,0,0,1.34.18l.43-.16a2,2,0,0,0,1.07-1.77V500.7c0-.47-.4-.92-1.14-1.34"/><g class="cls-60"><g class="cls-61"><path class="cls-62" d="M632.74,508.88s-5.46,36.46-39.25,47.6h0a84.91,84.91,0,0,1,18.13-.56,91.32,91.32,0,0,1,18,3,29.33,29.33,0,0,1,6.06,1.92,1.89,1.89,0,0,0,.54.2,1.91,1.91,0,0,0,.37,0,1.88,1.88,0,0,0,.43-.05l.43-.16a2,2,0,0,0,1.07-1.77V508.88Z"/></g></g><g class="cls-60"><g class="cls-63"><path class="cls-62" d="M632.75,497.77v62.45c0,.75,1.47,1.39,3.47,1.57V499.19c-2-.18-3.46-.81-3.45-1.41"/></g></g><path class="cls-64" d="M679.9,500.81c-4.47-.67-12.42-1-23.25.76-2.06.28-5.65,1-7.51,1.43a1.54,1.54,0,0,0-1.2,1.52v12.61a1.52,1.52,0,0,0,1.84,1.51c4.4-1,9.13-2.36,14.58-2.7a73.9,73.9,0,0,1,16.28.54,1.52,1.52,0,0,0,1.71-1.54V502.51a1.54,1.54,0,0,0-1.26-1.53l-1.19-.18"/><path class="cls-22" d="M595.06,526.23a2,2,0,0,0,.07-.54c-.08-1.64-1.08-2.44-1.6-4-.23-.69.9-2.16-.54-2.53s-4.38-.12-5.39-1.53c-.45-.62-1-1.43-1.73-1.25a1.47,1.47,0,0,0-.64.43c-6.11,6.06-.17,13.36,6.49,13.14a2.63,2.63,0,0,0,1.41-.3,4,4,0,0,0,1.42-2,7.87,7.87,0,0,0,.5-1.42"/><path class="cls-34" d="M583.35,527.33a3.89,3.89,0,0,1-4.41-1.31,6.15,6.15,0,0,1-1.06-4.78,12.4,12.4,0,0,1,1.94-4.6,9.46,9.46,0,0,1,4.22-4,9.31,9.31,0,0,1,3.19-.51,2.77,2.77,0,0,1,2.07.55,2.8,2.8,0,0,1,.64,1.45c.73,3.41.16,3.91-2,6.18a27,27,0,0,0-4.57,7"/></g></g></svg>